{
    "asset" : {
        "generator" : "Khronos glTF Blender I/O v1.8.19",
        "version" : "2.0"
    },
    "scene" : 0,
    "scenes" : [
        {
            "name" : "Scene",
            "nodes" : [
                0
            ]
        }
    ],
    "nodes" : [
        {
            "mesh" : 0,
            "name" : "Merged Right Hand"
        }
    ],
    "materials" : [
        {
            "doubleSided" : true,
            "name" : "Hand",
            "pbrMetallicRoughness" : {
                "baseColorFactor" : [
                    0.800000011920929,
                    0.800000011920929,
                    0.800000011920929,
                    1
                ],
                "metallicFactor" : 0,
                "roughnessFactor" : 0.5
            }
        }
    ],
    "meshes" : [
        {
            "name" : "Cube.003",
            "primitives" : [
                {
                    "attributes" : {
                        "POSITION" : 0,
                        "NORMAL" : 1,
                        "TEXCOORD_0" : 2
                    },
                    "indices" : 3,
                    "material" : 0
                }
            ]
        }
    ],
    "accessors" : [
        {
            "bufferView" : 0,
            "componentType" : 5126,
            "count" : 1648,
            "max" : [
                0.02000000700354576,
                0.04000000283122063,
                0.03999999910593033
            ],
            "min" : [
                -0.022952981293201447,
                -0.139521524310112,
                -0.09210600703954697
            ],
            "type" : "VEC3"
        },
        {
            "bufferView" : 1,
            "componentType" : 5126,
            "count" : 1648,
            "type" : "VEC3"
        },
        {
            "bufferView" : 2,
            "componentType" : 5126,
            "count" : 1648,
            "type" : "VEC2"
        },
        {
            "bufferView" : 3,
            "componentType" : 5123,
            "count" : 1992,
            "type" : "SCALAR"
        }
    ],
    "bufferViews" : [
        {
            "buffer" : 0,
            "byteLength" : 19776,
            "byteOffset" : 0
        },
        {
            "buffer" : 0,
            "byteLength" : 19776,
            "byteOffset" : 19776
        },
        {
            "buffer" : 0,
            "byteLength" : 13184,
            "byteOffset" : 39552
        },
        {
            "buffer" : 0,
            "byteLength" : 3984,
            "byteOffset" : 52736
        }
    ],
    "buffers" : [
        {
            "byteLength" : 56720,
            "uri" : "right_hand.bin"
        }
    ]
}
