{
    "asset" : {
        "generator" : "Khronos glTF Blender I/O v1.8.19",
        "version" : "2.0"
    },
    "scene" : 0,
    "scenes" : [
        {
            "name" : "Scene",
            "nodes" : [
                0
            ]
        }
    ],
    "nodes" : [
        {
            "mesh" : 0,
            "name" : "Dungeon_Custom_Border_Flat",
            "translation" : [
                29,
                0,
                -9
            ]
        }
    ],
    "materials" : [
        {
            "doubleSided" : true,
            "name" : "Stone_Wall",
            "pbrMetallicRoughness" : {
                "baseColorTexture" : {
                    "index" : 0
                },
                "metallicFactor" : 0
            }
        },
        {
            "doubleSided" : true,
            "name" : "Stone_Floor",
            "pbrMetallicRoughness" : {
                "baseColorTexture" : {
                    "index" : 1
                },
                "metallicFactor" : 0,
                "roughnessFactor" : 0.8454545736312866
            }
        }
    ],
    "meshes" : [
        {
            "name" : "Dungeon_Custom_Border_Flat",
            "primitives" : [
                {
                    "attributes" : {
                        "POSITION" : 0,
                        "NORMAL" : 1,
                        "TEXCOORD_0" : 2
                    },
                    "indices" : 3,
                    "material" : 0
                },
                {
                    "attributes" : {
                        "POSITION" : 4,
                        "NORMAL" : 5,
                        "TEXCOORD_0" : 6
                    },
                    "indices" : 7,
                    "material" : 1
                }
            ]
        }
    ],
    "textures" : [
        {
            "sampler" : 0,
            "source" : 0
        },
        {
            "sampler" : 0,
            "source" : 0
        }
    ],
    "images" : [
        {
            "mimeType" : "image/png",
            "name" : "MageRoomTexture",
            "uri" : "MageRoomTexture.png"
        }
    ],
    "accessors" : [
        {
            "bufferView" : 0,
            "componentType" : 5126,
            "count" : 1128,
            "max" : [
                2.000070095062256,
                4.362365245819092,
                2.0000691413879395
            ],
            "min" : [
                -2.000067949295044,
                -0.04505813121795654,
                -2.0683021545410156
            ],
            "type" : "VEC3"
        },
        {
            "bufferView" : 1,
            "componentType" : 5126,
            "count" : 1128,
            "type" : "VEC3"
        },
        {
            "bufferView" : 2,
            "componentType" : 5126,
            "count" : 1128,
            "type" : "VEC2"
        },
        {
            "bufferView" : 3,
            "componentType" : 5123,
            "count" : 1692,
            "type" : "SCALAR"
        },
        {
            "bufferView" : 4,
            "componentType" : 5126,
            "count" : 3901,
            "max" : [
                2.011551856994629,
                0.011928565800189972,
                2.0057661533355713
            ],
            "min" : [
                -2.0000016689300537,
                -0.1319492906332016,
                -2.0105319023132324
            ],
            "type" : "VEC3"
        },
        {
            "bufferView" : 5,
            "componentType" : 5126,
            "count" : 3901,
            "type" : "VEC3"
        },
        {
            "bufferView" : 6,
            "componentType" : 5126,
            "count" : 3901,
            "type" : "VEC2"
        },
        {
            "bufferView" : 7,
            "componentType" : 5123,
            "count" : 5571,
            "type" : "SCALAR"
        }
    ],
    "bufferViews" : [
        {
            "buffer" : 0,
            "byteLength" : 13536,
            "byteOffset" : 0
        },
        {
            "buffer" : 0,
            "byteLength" : 13536,
            "byteOffset" : 13536
        },
        {
            "buffer" : 0,
            "byteLength" : 9024,
            "byteOffset" : 27072
        },
        {
            "buffer" : 0,
            "byteLength" : 3384,
            "byteOffset" : 36096
        },
        {
            "buffer" : 0,
            "byteLength" : 46812,
            "byteOffset" : 39480
        },
        {
            "buffer" : 0,
            "byteLength" : 46812,
            "byteOffset" : 86292
        },
        {
            "buffer" : 0,
            "byteLength" : 31208,
            "byteOffset" : 133104
        },
        {
            "buffer" : 0,
            "byteLength" : 11142,
            "byteOffset" : 164312
        }
    ],
    "samplers" : [
        {
            "magFilter" : 9729,
            "minFilter" : 9987
        }
    ],
    "buffers" : [
        {
            "byteLength" : 175456,
            "uri" : "Dungeon_Custom_Border_Flat.bin"
        }
    ]
}
