{
    "asset" : {
        "generator" : "Khronos glTF Blender I/O v1.8.19",
        "version" : "2.0"
    },
    "scene" : 0,
    "scenes" : [
        {
            "name" : "Scene",
            "nodes" : [
                0
            ]
        }
    ],
    "nodes" : [
        {
            "mesh" : 0,
            "name" : "Dungeon_Custom_Corner_Flat",
            "rotation" : [
                0,
                -1,
                0,
                1.6292068494294654e-07
            ],
            "translation" : [
                24,
                0,
                -9
            ]
        }
    ],
    "materials" : [
        {
            "doubleSided" : true,
            "name" : "Stone_Wall",
            "pbrMetallicRoughness" : {
                "baseColorTexture" : {
                    "index" : 0
                },
                "metallicFactor" : 0
            }
        },
        {
            "doubleSided" : true,
            "name" : "Stone_Floor",
            "pbrMetallicRoughness" : {
                "baseColorTexture" : {
                    "index" : 1
                },
                "metallicFactor" : 0,
                "roughnessFactor" : 0.8454545736312866
            }
        }
    ],
    "meshes" : [
        {
            "name" : "Dungeon_Custom_Corner_Flat",
            "primitives" : [
                {
                    "attributes" : {
                        "POSITION" : 0,
                        "NORMAL" : 1,
                        "TEXCOORD_0" : 2
                    },
                    "indices" : 3,
                    "material" : 0
                },
                {
                    "attributes" : {
                        "POSITION" : 4,
                        "NORMAL" : 5,
                        "TEXCOORD_0" : 6
                    },
                    "indices" : 7,
                    "material" : 1
                }
            ]
        }
    ],
    "textures" : [
        {
            "sampler" : 0,
            "source" : 0
        },
        {
            "sampler" : 0,
            "source" : 0
        }
    ],
    "images" : [
        {
            "mimeType" : "image/png",
            "name" : "MageRoomTexture",
            "uri" : "MageRoomTexture.png"
        }
    ],
    "accessors" : [
        {
            "bufferView" : 0,
            "componentType" : 5126,
            "count" : 1631,
            "max" : [
                2.068300247192383,
                4.305434703826904,
                2.06830096244812
            ],
            "min" : [
                -2.0000619888305664,
                -0.06121683120727539,
                -2.0000674724578857
            ],
            "type" : "VEC3"
        },
        {
            "bufferView" : 1,
            "componentType" : 5126,
            "count" : 1631,
            "type" : "VEC3"
        },
        {
            "bufferView" : 2,
            "componentType" : 5126,
            "count" : 1631,
            "type" : "VEC2"
        },
        {
            "bufferView" : 3,
            "componentType" : 5123,
            "count" : 2439,
            "type" : "SCALAR"
        },
        {
            "bufferView" : 4,
            "componentType" : 5126,
            "count" : 3901,
            "max" : [
                2.005765438079834,
                0.011928796768188477,
                2.01155161857605
            ],
            "min" : [
                -2.010531187057495,
                -0.13194894790649414,
                -1.999999761581421
            ],
            "type" : "VEC3"
        },
        {
            "bufferView" : 5,
            "componentType" : 5126,
            "count" : 3901,
            "type" : "VEC3"
        },
        {
            "bufferView" : 6,
            "componentType" : 5126,
            "count" : 3901,
            "type" : "VEC2"
        },
        {
            "bufferView" : 7,
            "componentType" : 5123,
            "count" : 5571,
            "type" : "SCALAR"
        }
    ],
    "bufferViews" : [
        {
            "buffer" : 0,
            "byteLength" : 19572,
            "byteOffset" : 0
        },
        {
            "buffer" : 0,
            "byteLength" : 19572,
            "byteOffset" : 19572
        },
        {
            "buffer" : 0,
            "byteLength" : 13048,
            "byteOffset" : 39144
        },
        {
            "buffer" : 0,
            "byteLength" : 4878,
            "byteOffset" : 52192
        },
        {
            "buffer" : 0,
            "byteLength" : 46812,
            "byteOffset" : 57072
        },
        {
            "buffer" : 0,
            "byteLength" : 46812,
            "byteOffset" : 103884
        },
        {
            "buffer" : 0,
            "byteLength" : 31208,
            "byteOffset" : 150696
        },
        {
            "buffer" : 0,
            "byteLength" : 11142,
            "byteOffset" : 181904
        }
    ],
    "samplers" : [
        {
            "magFilter" : 9729,
            "minFilter" : 9987
        }
    ],
    "buffers" : [
        {
            "byteLength" : 193048,
            "uri" : "Dungeon_Custom_Corner_Flat.bin"
        }
    ]
}
