{
    "asset" : {
        "generator" : "Khronos glTF Blender I/O v1.8.19",
        "version" : "2.0"
    },
    "scene" : 0,
    "scenes" : [
        {
            "name" : "Scene",
            "nodes" : [
                0
            ]
        }
    ],
    "nodes" : [
        {
            "mesh" : 0,
            "name" : "Dungeon_Custom_Center",
            "translation" : [
                24,
                0,
                -19
            ]
        }
    ],
    "materials" : [
        {
            "doubleSided" : true,
            "name" : "Stone_Wall",
            "pbrMetallicRoughness" : {
                "baseColorTexture" : {
                    "index" : 0
                },
                "metallicFactor" : 0
            }
        },
        {
            "doubleSided" : true,
            "name" : "Stone_Floor",
            "pbrMetallicRoughness" : {
                "baseColorTexture" : {
                    "index" : 1
                },
                "metallicFactor" : 0,
                "roughnessFactor" : 0.8454545736312866
            }
        }
    ],
    "meshes" : [
        {
            "name" : "Dungeon_Custom_Center",
            "primitives" : [
                {
                    "attributes" : {
                        "POSITION" : 0,
                        "NORMAL" : 1,
                        "TEXCOORD_0" : 2
                    },
                    "indices" : 3,
                    "material" : 0
                },
                {
                    "attributes" : {
                        "POSITION" : 4,
                        "NORMAL" : 5,
                        "TEXCOORD_0" : 6
                    },
                    "indices" : 7,
                    "material" : 1
                }
            ]
        }
    ],
    "textures" : [
        {
            "sampler" : 0,
            "source" : 0
        },
        {
            "sampler" : 0,
            "source" : 0
        }
    ],
    "images" : [
        {
            "mimeType" : "image/png",
            "name" : "MageRoomTexture",
            "uri" : "MageRoomTexture.png"
        }
    ],
    "accessors" : [
        {
            "bufferView" : 0,
            "componentType" : 5126,
            "count" : 1092,
            "max" : [
                2.0000691413879395,
                4.362366199493408,
                2.0000691413879395
            ],
            "min" : [
                -2.0000691413879395,
                3.95896053314209,
                -2
            ],
            "type" : "VEC3"
        },
        {
            "bufferView" : 1,
            "componentType" : 5126,
            "count" : 1092,
            "type" : "VEC3"
        },
        {
            "bufferView" : 2,
            "componentType" : 5126,
            "count" : 1092,
            "type" : "VEC2"
        },
        {
            "bufferView" : 3,
            "componentType" : 5123,
            "count" : 1638,
            "type" : "SCALAR"
        },
        {
            "bufferView" : 4,
            "componentType" : 5126,
            "count" : 3899,
            "max" : [
                2.010531425476074,
                0.011928565800189972,
                2.011551856994629
            ],
            "min" : [
                -2.005765676498413,
                -0.1319492906332016,
                -2
            ],
            "type" : "VEC3"
        },
        {
            "bufferView" : 5,
            "componentType" : 5126,
            "count" : 3899,
            "type" : "VEC3"
        },
        {
            "bufferView" : 6,
            "componentType" : 5126,
            "count" : 3899,
            "type" : "VEC2"
        },
        {
            "bufferView" : 7,
            "componentType" : 5123,
            "count" : 5571,
            "type" : "SCALAR"
        }
    ],
    "bufferViews" : [
        {
            "buffer" : 0,
            "byteLength" : 13104,
            "byteOffset" : 0
        },
        {
            "buffer" : 0,
            "byteLength" : 13104,
            "byteOffset" : 13104
        },
        {
            "buffer" : 0,
            "byteLength" : 8736,
            "byteOffset" : 26208
        },
        {
            "buffer" : 0,
            "byteLength" : 3276,
            "byteOffset" : 34944
        },
        {
            "buffer" : 0,
            "byteLength" : 46788,
            "byteOffset" : 38220
        },
        {
            "buffer" : 0,
            "byteLength" : 46788,
            "byteOffset" : 85008
        },
        {
            "buffer" : 0,
            "byteLength" : 31192,
            "byteOffset" : 131796
        },
        {
            "buffer" : 0,
            "byteLength" : 11142,
            "byteOffset" : 162988
        }
    ],
    "samplers" : [
        {
            "magFilter" : 9729,
            "minFilter" : 9987
        }
    ],
    "buffers" : [
        {
            "byteLength" : 174132,
            "uri" : "Dungeon_Custom_Center.bin"
        }
    ]
}
