{
    "asset" : {
        "generator" : "Khronos glTF Blender I/O v1.8.19",
        "version" : "2.0"
    },
    "scene" : 0,
    "scenes" : [
        {
            "name" : "Scene",
            "nodes" : [
                0
            ]
        }
    ],
    "nodes" : [
        {
            "mesh" : 0,
            "name" : "Dungeon_Wall_Var1",
            "translation" : [
                29,
                0,
                -17
            ]
        }
    ],
    "materials" : [
        {
            "doubleSided" : true,
            "name" : "Stone_Wall",
            "pbrMetallicRoughness" : {
                "baseColorTexture" : {
                    "index" : 0
                },
                "metallicFactor" : 0
            }
        }
    ],
    "meshes" : [
        {
            "name" : "Dungeon_Wall_Var1",
            "primitives" : [
                {
                    "attributes" : {
                        "POSITION" : 0,
                        "NORMAL" : 1,
                        "TEXCOORD_0" : 2
                    },
                    "indices" : 3,
                    "material" : 0
                }
            ]
        }
    ],
    "textures" : [
        {
            "sampler" : 0,
            "source" : 0
        }
    ],
    "images" : [
        {
            "mimeType" : "image/png",
            "name" : "MageRoomTexture",
            "uri" : "MageRoomTexture.png"
        }
    ],
    "accessors" : [
        {
            "bufferView" : 0,
            "componentType" : 5126,
            "count" : 764,
            "max" : [
                2,
                4.982719898223877,
                -1.827846884727478
            ],
            "min" : [
                -1.9999996423721313,
                -0.20000022649765015,
                -1.9999996423721313
            ],
            "type" : "VEC3"
        },
        {
            "bufferView" : 1,
            "componentType" : 5126,
            "count" : 764,
            "type" : "VEC3"
        },
        {
            "bufferView" : 2,
            "componentType" : 5126,
            "count" : 764,
            "type" : "VEC2"
        },
        {
            "bufferView" : 3,
            "componentType" : 5123,
            "count" : 1230,
            "type" : "SCALAR"
        }
    ],
    "bufferViews" : [
        {
            "buffer" : 0,
            "byteLength" : 9168,
            "byteOffset" : 0
        },
        {
            "buffer" : 0,
            "byteLength" : 9168,
            "byteOffset" : 9168
        },
        {
            "buffer" : 0,
            "byteLength" : 6112,
            "byteOffset" : 18336
        },
        {
            "buffer" : 0,
            "byteLength" : 2460,
            "byteOffset" : 24448
        }
    ],
    "samplers" : [
        {
            "magFilter" : 9729,
            "minFilter" : 9987
        }
    ],
    "buffers" : [
        {
            "byteLength" : 26908,
            "uri" : "Dungeon_Wall_Var1.bin"
        }
    ]
}
